<svg width="55" height="55" viewBox="0 0 55 55" fill="none" xmlns="http://www.w3.org/2000/svg">
<path d="M54.6665 49.3733C54.49 49.9401 54.3886 50.5451 54.1244 51.0664C52.4609 54.3512 48.3835 55.0111 45.7604 52.4275C43.8306 50.5271 41.9135 48.614 40.0185 46.6786C38.3867 45.0109 37.9587 43.066 38.8084 40.8631C38.8613 40.7267 38.8803 40.4845 38.801 40.4031C37.7135 39.2831 36.607 38.1822 35.4846 37.057C30.0778 41.467 23.9744 43.0586 17.1989 41.633C12.0478 40.549 7.869 37.7846 4.75445 33.5385C-1.56977 24.9141 -0.48649 12.878 7.50228 5.50893C15.1634 -1.55874 27.1999 -1.83476 35.1718 4.82892C38.075 7.25601 40.2014 10.2468 41.5024 13.8171C42.8076 17.4022 43.1056 21.0677 42.4419 24.8189C41.7814 28.5563 40.1813 31.8517 37.7326 34.7673C37.8224 34.8816 37.8879 34.982 37.9703 35.0656C38.9501 36.0512 39.9245 37.0411 40.9221 38.0077C41.0468 38.1283 41.3333 38.2118 41.4844 38.1547C43.7281 37.2981 45.6917 37.7327 47.3848 39.409C49.2713 41.2777 51.1324 43.1728 53.0221 45.0384C53.9479 45.9521 54.4319 47.0668 54.6655 48.3178C54.6665 48.669 54.6665 49.0211 54.6665 49.3733ZM36.0088 21.0561C36.068 20.9599 36.1113 20.8837 36.1589 20.8097C37.9016 18.0992 36.2054 14.6409 33.001 14.4326C31.793 14.3543 30.5766 14.3818 29.3644 14.4062C28.4058 14.4252 27.7812 15.065 27.778 16.0189C27.7654 19.3778 27.7654 22.7376 27.778 26.0964C27.7823 27.063 28.446 27.7124 29.413 27.7272C30.5206 27.7441 31.6282 27.7578 32.7347 27.724C34.3263 27.6743 35.5808 26.9922 36.347 25.5645C37.1745 24.0204 36.9928 22.5208 36.0088 21.0561ZM16.661 21.0286C16.6959 21.0318 16.7318 21.0349 16.7667 21.0381C16.7667 21.7065 16.7593 22.3749 16.7677 23.0433C16.7941 24.9511 17.6238 26.3756 19.3295 27.2608C21.9949 28.6451 25.5132 26.8124 25.7563 23.8184C25.9042 22.0047 25.8789 20.1625 25.7626 18.3445C25.6347 16.3362 23.8634 14.6346 21.9336 14.4442C19.6307 14.2169 17.5783 15.4341 17.0351 17.5387C16.7455 18.6597 16.7751 19.8621 16.661 21.0286ZM11.6356 17.5196C11.6504 17.7925 11.6673 17.9638 11.6673 18.1351C11.6695 19.8219 11.6695 21.5098 11.6684 23.1966C11.6673 24.0744 11.3672 24.5185 10.7595 24.5545C10.193 24.5873 9.87069 24.2108 9.7259 23.3468C9.60119 22.6033 8.9787 22.0555 8.23151 22.0312C7.46951 22.0068 6.80898 22.4849 6.65574 23.2326C6.59444 23.5318 6.62403 23.8586 6.65785 24.1685C6.87239 26.1673 8.73351 27.7727 10.769 27.7272C12.8658 27.6806 14.7153 26.0393 14.7766 24.0056C14.858 21.3194 14.8305 18.629 14.8147 15.9407C14.8094 15.0312 14.1858 14.4316 13.2716 14.4072C12.1313 14.3776 10.9888 14.3956 9.84744 14.4051C9.65932 14.4072 9.46168 14.4485 9.28413 14.5151C8.63417 14.7615 8.22833 15.4225 8.29175 16.0951C8.36256 16.8428 8.87724 17.4382 9.62338 17.5069C10.2691 17.5672 10.9212 17.5196 11.6356 17.5196Z" fill="#2ADA66"/>
<path d="M54.6665 49.3733C54.49 49.9401 54.3886 50.5451 54.1244 51.0664C52.4609 54.3512 48.3835 55.0111 45.7604 52.4275C43.8306 50.5271 41.9135 48.614 40.0185 46.6786C38.3867 45.0109 37.9587 43.066 38.8084 40.8631C38.8613 40.7267 38.8803 40.4845 38.801 40.4031C37.7135 39.2831 36.607 38.1822 35.4846 37.057C30.0778 41.467 23.9744 43.0586 17.1989 41.633C12.0478 40.549 7.869 37.7846 4.75445 33.5385C-1.56977 24.9141 -0.48649 12.878 7.50228 5.50893C15.1634 -1.55874 27.1999 -1.83476 35.1718 4.82892C38.075 7.25601 40.2014 10.2468 41.5024 13.8171C42.8076 17.4022 43.1056 21.0677 42.4419 24.8189C41.7814 28.5563 40.1813 31.8517 37.7326 34.7673C37.8224 34.8816 37.8879 34.982 37.9703 35.0656C38.9501 36.0512 39.9245 37.0411 40.9221 38.0077C41.0468 38.1283 41.3333 38.2118 41.4844 38.1547C43.7281 37.2981 45.6917 37.7327 47.3848 39.409C49.2713 41.2777 51.1324 43.1728 53.0221 45.0384C53.9479 45.9521 54.4319 47.0668 54.6655 48.3178C54.6665 48.669 54.6665 49.0211 54.6665 49.3733ZM36.0088 21.0561C36.068 20.9599 36.1113 20.8837 36.1589 20.8097C37.9016 18.0992 36.2054 14.6409 33.001 14.4326C31.793 14.3543 30.5766 14.3818 29.3644 14.4062C28.4058 14.4252 27.7812 15.065 27.778 16.0189C27.7654 19.3778 27.7654 22.7376 27.778 26.0964C27.7823 27.063 28.446 27.7124 29.413 27.7272C30.5206 27.7441 31.6282 27.7578 32.7347 27.724C34.3263 27.6743 35.5808 26.9922 36.347 25.5645C37.1745 24.0204 36.9928 22.5208 36.0088 21.0561ZM16.661 21.0286C16.6959 21.0318 16.7318 21.0349 16.7667 21.0381C16.7667 21.7065 16.7593 22.3749 16.7677 23.0433C16.7941 24.9511 17.6238 26.3756 19.3295 27.2608C21.9949 28.6451 25.5132 26.8124 25.7563 23.8184C25.9042 22.0047 25.8789 20.1625 25.7626 18.3445C25.6347 16.3362 23.8634 14.6346 21.9336 14.4442C19.6307 14.2169 17.5783 15.4341 17.0351 17.5387C16.7455 18.6597 16.7751 19.8621 16.661 21.0286ZM11.6356 17.5196C11.6504 17.7925 11.6673 17.9638 11.6673 18.1351C11.6695 19.8219 11.6695 21.5098 11.6684 23.1966C11.6673 24.0744 11.3672 24.5185 10.7595 24.5545C10.193 24.5873 9.87069 24.2108 9.7259 23.3468C9.60119 22.6033 8.9787 22.0555 8.23151 22.0312C7.46951 22.0068 6.80898 22.4849 6.65574 23.2326C6.59444 23.5318 6.62403 23.8586 6.65785 24.1685C6.87239 26.1673 8.73351 27.7727 10.769 27.7272C12.8658 27.6806 14.7153 26.0393 14.7766 24.0056C14.858 21.3194 14.8305 18.629 14.8147 15.9407C14.8094 15.0312 14.1858 14.4316 13.2716 14.4072C12.1313 14.3776 10.9888 14.3956 9.84744 14.4051C9.65932 14.4072 9.46168 14.4485 9.28413 14.5151C8.63417 14.7615 8.22833 15.4225 8.29175 16.0951C8.36256 16.8428 8.87724 17.4382 9.62338 17.5069C10.2691 17.5672 10.9212 17.5196 11.6356 17.5196Z" fill="black" fill-opacity="0.5"/>
</svg>
