<svg width="33" height="32" viewBox="0 0 33 32" fill="none" xmlns="http://www.w3.org/2000/svg">
<path d="M12.6003 28C9.36533 28 6.34976 27.0591 3.81158 25.4356C5.96658 25.5751 9.76965 25.2411 12.1352 22.9848C8.57666 22.8215 6.97185 20.0923 6.76252 18.926C7.06488 19.0426 8.50689 19.1826 9.32092 18.856C5.22748 17.8296 4.59951 14.2373 4.73906 13.141C5.50658 13.6775 6.80904 13.8641 7.32072 13.8174C3.50638 11.0882 4.87861 6.98276 5.5531 6.09635C8.29041 9.88867 12.3928 12.0186 17.468 12.137C17.3723 11.7174 17.3217 11.2804 17.3217 10.8316C17.3217 7.61092 19.925 5 23.1363 5C24.8141 5 26.326 5.71275 27.3873 6.85284C28.5085 6.59011 30.1959 5.97507 31.0208 5.4432C30.605 6.93611 29.3105 8.18149 28.5275 8.64308C28.5211 8.62731 28.534 8.65878 28.5275 8.64308C29.2153 8.53904 31.0764 8.18137 31.8116 7.68256C31.448 8.52125 30.0756 9.91573 28.9493 10.6964C29.1589 19.9381 22.0881 28 12.6003 28Z" fill="#999999"/>
</svg>
